<svg width="552" height="541" viewBox="0 0 552 541" fill="none" xmlns="http://www.w3.org/2000/svg">
<g clip-path="url(#clip0)">
<path d="M133.684 38.2776C133.684 38.2776 22.4773 7.16942 36.3763 129.75C50.2754 252.33 -31.1375 329.154 13.5391 388.613C58.2157 448.072 88.6394 494.812 144.759 516.955C209.159 542.407 318.583 564.247 413.902 491.072C509.221 417.897 580.5 385.87 540.784 327.344C501.068 268.818 468.776 299.728 480.694 232.039C492.611 164.351 548.724 182.818 507.027 100.494C465.33 18.1704 344.18 -18.4312 316.382 9.00764C288.584 36.4465 284.607 67.5476 244.905 73.034C205.203 78.5204 133.684 38.2776 133.684 38.2776Z" fill="#D6E8F6"/>
<path d="M246.164 413.916H192.329C192.329 413.916 194.361 385.777 209.562 393.717C224.763 401.657 220.375 381.344 238.62 380.036C256.864 378.728 257.409 392.154 260.785 400.985C264.16 409.815 266.538 398.008 277.861 396.206C287.281 394.7 296.261 405.722 293.947 413.266L246.164 413.916Z" fill="#EBF4FB"/>
<path d="M285.023 411.477C285.235 391.065 287.146 369.763 284.719 349.451C282.291 329.139 272.914 310.877 263.707 293.145C262.235 290.317 258.088 292.834 259.56 295.669C268.888 313.641 278.555 332.306 280.282 353.036C281.888 372.302 280.416 392.154 280.218 411.477C280.218 414.701 284.981 414.701 285.016 411.477H285.023Z" fill="#EBF4FB"/>
<path d="M258.86 293.987C284.789 326.954 284.245 371.241 281.569 411.54C281.357 414.757 286.155 414.743 286.368 411.54C289.149 369.671 289.106 324.579 262.257 290.445C260.296 287.949 256.921 291.512 258.86 293.98V293.987Z" fill="#EBF4FB"/>
<path d="M285.419 358.847C294.355 337.024 303.744 315.418 313.586 294.029C314.916 291.138 310.755 288.592 309.438 291.505C299.597 312.899 290.208 334.505 281.272 356.323C280.069 359.25 284.202 361.81 285.419 358.847Z" fill="#EBF4FB"/>
<path d="M285.837 362.948C294.084 338.702 303.418 314.919 313.84 291.597C315.135 288.691 311.009 286.146 309.693 289.073C299.097 312.777 289.602 336.961 281.209 361.626C280.175 364.666 284.811 365.981 285.837 362.955V362.948Z" fill="#EBF4FB"/>
<path d="M273.084 318.435L272.914 318.795L277.415 320.061C277.038 309.324 276.33 298.613 275.292 287.928C274.981 284.753 270.183 284.718 270.494 287.928C271.537 298.618 272.244 309.329 272.617 320.061C272.702 322.387 275.972 323.667 277.09 321.327L277.26 320.966C278.633 318.088 274.493 315.55 273.113 318.442L273.084 318.435Z" fill="#EBF4FB"/>
<path d="M279.538 323.214L273.042 285.163C272.504 281.996 267.876 283.339 268.414 286.492L274.938 324.515C275.476 327.683 280.105 326.339 279.567 323.186L279.538 323.214Z" fill="#EBF4FB"/>
<path d="M300.21 322.825C299.805 310.096 298.28 297.427 295.653 284.965C295.086 282.257 290.656 282.795 290.939 285.63C292.232 298.606 293.798 311.544 295.638 324.444C296.091 327.619 300.713 326.269 300.267 323.115C298.497 310.653 296.988 298.163 295.737 285.644L291.024 286.309C293.556 298.333 295.024 310.558 295.412 322.84C295.518 326.056 300.316 326.071 300.21 322.84V322.825Z" fill="#EBF4FB"/>
<path d="M372.635 230.01C361.836 221.695 347.123 219.864 337.251 210.376C331.78 205.116 328.355 198.011 324.215 191.563C316.43 179.501 305.475 169.215 292.15 165.029C278.824 160.844 263.092 163.615 253.41 174.065C240.672 187.83 239.879 211.875 224.246 221.915C219.59 224.905 214.133 226.213 209.18 228.631C195.733 235.213 186.675 250.654 187.241 266.173C187.807 281.692 197.941 296.376 211.862 301.891C218.71 304.52 226.069 305.547 233.376 304.896C255.505 303.079 280.642 281.437 324.385 297.946C342.141 304.648 363.952 312.015 377.851 298.653C383.067 293.647 386.06 286.542 387.653 279.338C391.594 261.535 386.725 240.855 372.635 230.01Z" fill="#EBF4FB"/>
<path d="M396.846 394.021C397.015 377.519 398.572 360.282 396.598 343.873C394.623 327.463 387.051 312.687 379.613 298.356C378.424 296.065 375.07 298.108 376.266 300.399C383.803 314.928 391.623 330.016 393.024 346.779C394.319 362.333 393.13 378.403 392.974 394.021C392.974 396.63 396.824 396.63 396.853 394.021H396.846Z" fill="#EBF4FB"/>
<path d="M375.7 299.021C396.662 325.675 396.223 361.477 394.057 394.056C393.887 396.658 397.766 396.644 397.935 394.056C400.186 360.205 400.15 323.766 378.439 296.157C376.853 294.142 374.122 297.02 375.693 298.985L375.7 299.021Z" fill="#EBF4FB"/>
<path d="M397.164 351.452C404.387 333.81 411.978 316.342 419.938 299.049C421.013 296.709 417.666 294.658 416.59 297.006C408.631 314.299 401.04 331.767 393.817 349.409C392.847 351.777 396.187 353.842 397.164 351.452Z" fill="#EBF4FB"/>
<path d="M397.511 354.768C404.177 335.17 411.726 315.942 420.157 297.083C421.204 294.736 417.864 292.679 416.81 295.04C408.242 314.205 400.566 333.765 393.781 353.722C392.946 356.182 396.69 357.257 397.525 354.796L397.511 354.768Z" fill="#EBF4FB"/>
<path d="M387.193 318.781L387.051 319.071L390.667 320.089C390.361 311.407 389.788 302.749 388.948 294.114C388.7 291.547 384.815 291.519 385.07 294.114C385.914 302.753 386.487 311.412 386.789 320.089C386.853 321.97 389.5 323.002 390.406 321.107L390.547 320.817C391.658 318.491 388.311 316.441 387.2 318.774L387.193 318.781Z" fill="#EBF4FB"/>
<path d="M392.437 322.649L387.186 291.887C386.747 289.328 383.01 290.409 383.442 292.962L388.693 323.723C389.132 326.283 392.868 325.201 392.437 322.649Z" fill="#EBF4FB"/>
<path d="M409.131 322.33C408.803 312.038 407.569 301.794 405.444 291.717C404.984 289.525 401.403 289.964 401.637 292.255C402.684 302.742 403.951 313.201 405.437 323.631C405.805 326.198 409.542 325.109 409.181 322.557C407.765 312.484 406.546 302.384 405.522 292.255L401.715 292.792C403.758 302.513 404.942 312.395 405.253 322.323C405.338 324.925 409.216 324.932 409.131 322.323V322.33Z" fill="#EBF4FB"/>
<path d="M467.678 247.296C458.953 240.572 447.049 239.095 439.074 231.424C434.65 227.182 431.883 221.427 428.536 216.216C422.273 206.467 413.384 198.152 402.613 194.766C391.842 191.379 379.118 193.634 371.298 202.076C360.973 213.204 360.357 232.64 347.718 240.756C343.953 243.174 339.544 244.235 335.538 246.186C324.64 251.503 317.343 263.988 317.803 276.538C318.263 289.087 326.451 300.951 337.704 305.391C343.241 307.515 349.191 308.344 355.099 307.816C372.989 306.345 393.314 288.847 428.699 302.202C443.058 307.625 460.686 313.578 471.925 302.789C476.171 298.738 478.556 292.997 479.851 287.171C483.007 272.784 479.065 256.063 467.678 247.296Z" fill="#EBF4FB"/>
<path d="M238.74 412.841H337.159C337.159 412.841 332.771 394.254 322.75 399.118C312.729 403.983 316.261 382.426 299.531 382.97C282.801 383.515 281.994 402.894 276.389 402.307C274.082 402.067 278.909 391.921 266.092 392.465C253.276 393.01 238.74 412.841 238.74 412.841Z" fill="#EBF4FB"/>
<path d="M305.815 414.036H404.234C404.234 414.036 399.846 395.449 389.825 400.313C379.804 405.177 383.336 383.621 366.606 384.165C349.876 384.71 349.069 404.089 343.464 403.502C341.157 403.261 345.984 393.116 333.167 393.66C320.351 394.205 305.815 414.036 305.815 414.036Z" fill="#EBF4FB"/>
<path d="M42.136 84.7275H176.796C183.904 84.7275 190.72 87.5484 195.746 92.5695C200.772 97.5907 203.596 104.401 203.596 111.502V441.284C203.596 446.799 201.403 452.088 197.5 455.987C193.597 459.886 188.303 462.077 182.783 462.077H39.7723C34.211 462.077 28.8774 459.87 24.945 455.941C21.0126 452.013 18.8033 446.684 18.8033 441.129V108.03C18.8033 101.843 21.2638 95.9082 25.6435 91.5327C30.0232 87.1573 35.9634 84.6992 42.1572 84.6992L42.136 84.7275Z" fill="#384A79"/>
<path d="M25.5476 442.797C25.5476 449.599 30.8483 455.17 37.3237 455.17H183.894C190.369 455.17 195.67 449.606 195.67 442.797V265.494L196.314 117.024C196.314 117.024 197.609 105.344 191.141 98.4717C184.672 91.5996 177.553 90.9138 177.553 90.9138H132.636C132.34 90.9203 132.055 91.0266 131.828 91.2153C131.601 91.404 131.444 91.664 131.383 91.9531L130.675 94.9155C130.381 96.3654 129.627 97.6817 128.524 98.6689C127.421 99.6561 126.029 100.261 124.554 100.395C120.102 100.67 114.151 100.819 110.945 100.89C107.746 100.826 101.787 100.67 97.3359 100.395C95.8629 100.27 94.4693 99.6745 93.3616 98.6965C92.2539 97.7185 91.4911 96.41 91.1861 94.965L90.4784 92.0026C90.4178 91.7135 90.2609 91.4535 90.0335 91.2648C89.8061 91.076 89.5214 90.9698 89.2258 90.9633H44.2944C44.2944 90.9633 37.175 91.6703 30.7067 98.5212C24.2384 105.372 25.5335 117.073 25.5335 117.073L25.944 210.687" fill="white"/>
<path d="M429.017 240.785C448.592 239.215 442.796 269.531 440.34 296.369C437.885 323.207 457.792 396.99 451.359 404.018C444.926 411.045 436.052 420.279 433.299 397.308C430.546 374.338 421.36 344.311 416.774 316.172C412.188 288.034 410.348 266.18 412.486 255.002C414.623 243.825 427.029 240.94 429.017 240.785Z" fill="#7A6E83"/>
<path d="M460.856 239.986C470.191 241.902 472.179 252.924 471.266 262.186C470.353 271.447 457.339 318.569 457.488 329.747C457.636 340.925 462.541 399.224 456.723 414.715C456.723 414.715 439.739 405.453 436.059 410.24C436.059 410.24 436.363 373.023 435.139 346.192C433.914 319.361 433.299 318.718 435.754 290.289C438.21 261.86 438.203 241.732 445.549 238.543C452.895 235.355 460.856 239.986 460.856 239.986Z" fill="#7A6E83"/>
<path d="M370.236 264.3C368.474 270.663 366.62 275.138 366.79 279.331C366.96 283.523 367.767 286.16 369.776 286.521C371.786 286.881 377.929 288.557 378.446 287.362C378.962 286.167 374.907 286.047 374.369 284.244C373.831 282.441 376.209 274.12 376.726 270.104C377.243 266.088 371.843 258.488 370.236 264.3Z" fill="#F6BD95"/>
<path d="M387.575 231.601C397.709 235.906 398.48 237.469 390.788 247.65C383.095 257.831 378.389 262.624 379.075 268.011C379.762 273.399 376.896 272.324 377.929 278.072C378.962 283.82 378.389 286.337 376.783 286.097C375.176 285.856 374.03 277.231 372.996 274.954C371.963 272.678 368.75 273.88 370.243 265.014C371.737 256.148 378.396 239.257 380.151 235.666C381.906 232.074 384.475 230.279 387.575 231.601Z" fill="#F6BD95"/>
<path d="M518.08 244.8C521.421 250.456 524.365 254.225 525.277 258.311C526.19 262.398 526.098 265.162 524.258 266.088C522.418 267.014 516.934 270.33 516.127 269.333C515.32 268.337 519.213 267.064 519.248 265.19C519.283 263.317 514.867 255.957 513.332 252.238C511.796 248.519 515.037 239.675 518.08 244.8Z" fill="#F6BD95"/>
<path d="M492.943 218.175C484.295 225.174 483.955 226.892 493.991 234.535C504.026 242.177 509.793 245.472 510.522 250.852C511.251 256.233 513.735 254.387 514.223 260.22C514.712 266.053 515.915 268.308 517.401 267.63C518.887 266.951 517.769 258.318 518.172 255.837C518.576 253.355 521.987 253.603 518.257 245.486C514.528 237.37 503.757 222.975 501.174 219.999C498.591 217.022 495.59 216.039 492.943 218.175Z" fill="#F6BD95"/>
<path d="M400.696 166.514C392.274 171.944 393.81 177.218 391.361 195.904C388.912 214.59 378.502 237.108 378.502 237.108C378.502 237.108 387.384 244.454 395.798 243.019C395.798 243.019 404.22 222.254 408.657 202.606C413.094 182.959 400.696 166.514 400.696 166.514Z" fill="#5374B7"/>
<path d="M426.739 156.291C442.046 152.939 463.935 157.57 466.228 160.921C468.521 164.273 476.787 226.404 471.889 257.71C471.889 257.71 459.646 254.677 448.472 257.074C437.297 259.471 410.037 260.885 410.037 260.885C410.037 260.885 410.497 228.78 406.06 211.055C401.623 193.33 383.86 173.541 404.093 164.732C424.325 155.923 426.739 156.291 426.739 156.291Z" fill="#5374B7"/>
<path d="M381.376 226.807L377.703 238.07C377.703 238.07 387.462 246.695 395.494 244.058L399.627 234.238C399.627 234.238 383.208 230.879 381.376 226.807Z" fill="#373463"/>
<path d="M463.503 159.189C473.015 162.017 472.901 167.56 480.084 184.868C487.268 202.175 503.106 220.925 503.106 220.925C503.106 220.925 496.453 230.498 487.975 231.48C487.975 231.48 474.529 213.848 465.159 196.18C455.789 178.512 463.503 159.189 463.503 159.189Z" fill="#5374B7"/>
<path d="M497.678 211.819L504.125 221.632C504.125 221.632 496.956 232.682 488.555 232.399L482.016 224.12C482.016 224.12 496.963 216.259 497.678 211.819Z" fill="#373463"/>
<path d="M435.67 169.823L424.162 171.526C423.046 171.66 421.922 171.346 421.037 170.653C420.152 169.96 419.578 168.944 419.442 167.829L415.373 137.908C415.192 136.784 415.463 135.634 416.125 134.708C416.787 133.782 417.788 133.153 418.911 132.959L430.418 131.255C431.535 131.122 432.659 131.436 433.544 132.129C434.429 132.822 435.002 133.838 435.139 134.953L439.208 164.873C439.389 165.998 439.118 167.147 438.456 168.074C437.794 169 436.792 169.629 435.67 169.823Z" fill="#F6BD95"/>
<path d="M426.738 156.29C426.738 156.29 424.92 156.057 411.58 161.572C412.811 167.454 416.534 175.924 427.807 175.295C439.59 174.637 444.431 162.809 446.306 155.499C439.817 154.891 432.754 154.968 426.738 156.29Z" fill="#F6BD95"/>
<path d="M435.599 134.571C435.599 144.363 426.703 152.536 419.605 152.536C412.507 152.536 407.822 144.681 407.822 134.861C407.822 125.041 407.9 117.052 419.605 117.052C426.738 117.08 435.599 119.074 435.599 134.571Z" fill="#F6BD95"/>
<path d="M437.128 133.129C433.661 132.422 430.547 128.979 429.167 124.504C427.787 120.028 424.878 116.677 420.137 116.995C415.395 117.313 410.76 121.287 408.467 125.281C407.087 123.047 408.255 114.019 418.509 111.141C428.763 108.264 438.197 114.259 440.497 122.941C442.946 132.21 440.957 133.928 437.128 133.129Z" fill="#373463"/>
<path d="M440.652 134.769C440.482 137.392 438.529 139.52 436.25 139.52C433.971 139.52 432.294 137.399 432.464 134.769C432.634 132.139 434.587 130.018 436.866 130.018C439.144 130.018 440.821 132.146 440.652 134.769Z" fill="#F6BD95"/>
<path d="M442.18 405.771C438.599 407.581 436.979 412.481 433.455 415.669C429.93 418.858 427.637 422.697 430.702 423.178C434.399 423.814 438.13 424.241 441.876 424.457C448.458 424.938 450.906 426.218 452.435 421.106C453.964 415.994 453.659 408.168 453.659 408.168C453.659 408.168 446.929 403.374 442.18 405.771Z" fill="#F1A36C"/>
<path d="M231.415 123.676C231.415 123.676 216.936 103.081 197.637 123.676C178.338 103.081 163.859 123.676 163.859 123.676C148.063 156.955 197.637 178.872 197.637 178.872C197.637 178.872 247.211 156.955 231.415 123.676Z" fill="#E53028"/>
<path d="M222.987 147.099L214.353 146.795L211.352 138.191L208.125 129.149L206.894 125.698L205.839 129.233L203.299 137.809C202.457 140.637 201.6 143.529 200.793 146.399C199.569 150.712 198.331 155.018 197.113 159.331L195.946 156.128C195.054 153.66 194.127 151.179 193.207 148.754L190.433 141.401L187.602 134.055L186.654 131.503L185.606 133.963C183.795 138.205 182.068 142.518 180.277 146.802L172.033 147.099C169.122 147.213 166.209 147.349 163.293 147.509C166.204 147.665 169.117 147.802 172.033 147.92L180.773 148.238H181.226L181.438 147.792C183.108 144.257 184.785 140.793 186.434 137.286L188.105 142.235L190.688 149.666C191.551 152.14 192.4 154.615 193.292 157.089L195.932 164.499L197.425 168.677L198.67 164.4C200.333 158.673 201.89 152.918 203.497 147.17C204.304 144.3 205.068 141.415 205.846 138.538L207.262 133.362L209.491 138.905L213.1 147.764L213.305 148.266H213.801L223.001 147.941C226.058 147.818 229.125 147.674 232.201 147.509C229.115 147.354 226.044 147.217 222.987 147.099Z" fill="white"/>
<path d="M68.8089 199.375C68.8089 199.375 63.2323 230.18 61.9939 237.935C60.7554 245.691 48.3637 259.909 38.456 267.665C28.5483 275.421 18.6406 289.639 18.6406 289.639V328.418L142.487 324.543L143.902 195.501L68.8089 199.375Z" fill="#373463"/>
<path d="M82.4391 223.081C82.4391 223.081 98.5462 254.105 110.931 254.105C123.315 254.105 131.369 244.412 133.846 228.9C136.323 213.388 140.038 186.246 128.892 179.777C117.746 173.308 102.877 165.559 86.7702 178.483C70.6631 191.408 76.8625 206.919 76.8625 206.919C76.8625 206.919 73.1471 210.794 75.624 217.263C78.1009 223.732 82.4391 223.081 82.4391 223.081Z" fill="#F6BD95"/>
<path d="M80.1461 208.863C80.1461 208.863 111.603 214.032 127.958 185.596C130.477 190.764 132.989 203.695 139.281 204.982C145.572 206.269 143.683 205.625 143.683 205.625C143.683 205.625 147.455 182.358 137.391 172.014C127.328 161.671 118.524 159.076 107.201 160.391C95.8781 161.706 88.3271 161.685 79.5234 173.315C70.7197 184.945 70.7197 196.583 68.2003 203.045C65.6809 209.507 80.1461 208.863 80.1461 208.863Z" fill="#373463"/>
<path d="M96.0622 239.887C96.0622 239.887 93.5853 265.742 92.3469 269.616C91.1084 273.491 113.408 281.246 119.6 278.666C121.461 272.847 121.461 241.824 121.461 241.824L96.0622 239.887Z" fill="#F6BD95"/>
<path d="M89.8769 264.42C89.8769 264.42 67.5775 261.832 56.4314 268.294C45.2852 274.756 66.3391 453.141 66.3391 453.141L171.021 453.784L146.252 266.357L122.714 265.063C122.714 265.063 125.191 274.113 117.76 276.693C110.329 279.274 95.4465 275.428 89.8769 264.42Z" fill="#D6E8F6"/>
<path d="M251.535 292.233L268.675 308.82L282.511 293.527C282.511 293.527 286.226 280.603 283.749 279.309L276.319 275.435C276.319 275.435 283.749 262.511 281.272 261.217C281.265 261.21 256.489 274.141 251.535 292.233Z" fill="#F6BD95"/>
<path d="M130.753 264.872L149.323 453.19L182.153 453.833C182.153 453.833 164.822 274.141 158.622 270.26C152.423 266.378 130.753 264.872 130.753 264.872Z" fill="white"/>
<path d="M151.397 267.891C151.397 267.891 166.053 271.554 180.922 298.695C195.79 325.837 214.374 340.069 214.374 340.069L250.297 292.24L270.112 310.34C270.112 310.34 250.297 350.413 245.343 356.875C240.389 363.337 229.236 384.017 209.42 384.017C189.605 384.017 147.483 332.313 145.02 325.851C142.558 319.389 124.349 259.061 151.397 267.891Z" fill="white"/>
<path d="M251.535 284.478L241.627 296.115L267.642 321.963L275.073 309.039L251.535 284.478Z" fill="white"/>
<path d="M160.03 304.465C159.852 304.471 159.675 304.49 159.5 304.521C157.377 297.402 148.764 271.426 131.978 263.571C128.841 262.023 125.508 260.909 122.07 260.263V261.281C125.386 261.925 128.602 263.009 131.631 264.505C148.021 272.176 156.527 297.663 158.615 304.761C157.79 305.119 157.09 305.712 156.604 306.468C156.118 307.223 155.867 308.106 155.883 309.003C155.955 309.811 156.26 310.58 156.761 311.218C157.263 311.855 157.939 312.333 158.707 312.593C159.476 312.853 160.303 312.885 161.089 312.683C161.875 312.482 162.586 312.056 163.134 311.458C163.682 310.86 164.044 310.116 164.176 309.316C164.308 308.517 164.205 307.696 163.878 306.954C163.551 306.212 163.016 305.58 162.336 305.137C161.657 304.694 160.863 304.458 160.052 304.457L160.03 304.465Z" fill="#373463"/>
<path d="M150.569 326.488H221.182L195.167 416.97L126.415 417.621L150.569 326.488Z" fill="#769CD0"/>
<path d="M193.144 346.681C193.223 339.919 187.8 334.373 181.031 334.294C174.262 334.214 168.71 339.632 168.631 346.395C168.552 353.157 173.975 358.703 180.744 358.782C187.513 358.862 193.065 353.444 193.144 346.681Z" fill="#1C934C"/>
<path d="M189.711 343.986L183.632 343.915L183.703 337.835L178.324 337.771L178.254 343.852L172.167 343.781L172.104 349.154L178.19 349.225L178.119 355.298L183.498 355.362L183.568 349.289L189.647 349.359L189.711 343.986Z" fill="#FEFEFE"/>
<path d="M123.315 397.584C123.315 397.584 140.661 400.172 148.085 392.416C155.508 384.66 166.669 369.148 162.946 366.561C159.224 363.973 140.045 377.541 138.807 376.254C137.568 374.967 142.933 367.204 140.222 366.561C137.512 365.917 123.945 372.379 122.671 374.96C121.398 377.541 123.315 397.584 123.315 397.584Z" fill="#F6BD95"/>
<path d="M75.8293 262.744C75.8293 262.744 90.4856 277.082 92.9696 295.613C95.4536 314.143 95.4465 453.133 95.4465 453.133L53.3247 454.456L50.8478 267.806C50.8478 267.806 66.1268 258.99 75.8293 262.744Z" fill="white"/>
<path d="M53.9474 331.232C53.9474 331.232 53.9474 349.762 62.6166 354.931C71.2859 360.099 94.4133 368.717 94.4133 368.717V409.214C94.4133 409.214 52.0862 416.758 52.709 389.418C53.3317 362.078 53.9474 331.232 53.9474 331.232Z" fill="#DBDCE0"/>
<path d="M59.7293 266.166C59.7293 266.166 44.6554 261.217 31.0323 294.821C17.4093 328.425 12.4483 365.917 12.4483 376.254C12.4321 380.04 13.3229 383.776 15.0465 387.148C16.7701 390.521 19.2764 393.432 22.356 395.64C26.0714 398.227 125.177 400.808 125.177 400.808V372.379C125.177 372.379 50.869 372.379 49.6093 364.602C48.3496 356.825 80.9954 275.025 59.7293 266.166Z" fill="white"/>
<path d="M111.554 369.148L114.031 406.634L125.177 404.046L126.415 369.148H111.554Z" fill="white"/>
<path d="M80.8963 263.939C75.7868 269.341 74.7465 279.076 77.7117 293.69C80.6769 308.304 82.1701 313.691 83.0265 315.649L82.8071 315.685C81.8146 315.923 80.8834 316.367 80.0738 316.989C79.2643 317.61 78.5945 318.394 78.108 319.29C71.5901 330.093 78.6388 360.841 78.9431 362.142L80.1461 361.838C80.0754 361.527 72.9135 330.327 79.1554 319.983C79.554 319.23 80.1085 318.57 80.782 318.047C81.4555 317.524 82.2327 317.15 83.0618 316.95C83.3803 316.88 83.6988 316.83 84.0101 316.788C95.0006 315.374 100.393 331.939 106.097 349.465C106.642 351.148 107.194 352.838 107.753 354.521L108.921 354.096C108.369 352.421 107.817 350.731 107.272 349.048C101.462 331.182 95.9489 314.278 84.2437 315.466C83.8474 314.759 82.4815 311.117 78.8865 293.428C76.0132 279.288 76.9474 269.92 81.7172 264.851C84.4135 262.023 88.3625 260.439 93.6277 260.135L93.3658 258.863C87.9308 259.216 83.7766 260.885 80.8963 263.939Z" fill="#373463"/>
<path d="M337.159 375.773C320.103 377.321 329.834 427.999 332.028 434.369C334.222 440.74 339.813 452.2 336.182 481.739L345.46 483.266C345.46 483.266 353.245 454.222 350.831 435.119C348.418 416.016 348.39 402.766 350.343 390.026C352.296 377.286 342.778 375.264 337.159 375.773Z" fill="#D89073"/>
<path d="M345.46 483.28C345.46 483.28 348.998 489.141 349.975 492.068C350.952 494.995 346.557 494.995 341.306 494.359C336.055 493.722 323.847 495.122 319.7 494.359C315.553 493.595 316.402 489.261 321.653 487.352C326.904 485.443 336.182 475.503 336.67 477.164C337.159 478.826 340.457 483.662 345.46 483.28Z" fill="#D89073"/>
<path d="M344.773 375.773C327.187 377.371 337.222 429.633 339.487 436.201C341.752 442.769 347.548 454.583 343.733 485.069L353.301 486.645C353.301 486.645 361.362 456.69 358.842 436.985C356.323 417.281 356.323 403.615 358.34 390.479C360.357 377.342 350.569 375.25 344.773 375.773Z" fill="#F6BD95"/>
<path d="M354.844 347.662C354.844 347.662 357.866 364.086 361.39 372.888C367.823 388.944 373.102 397.195 373.102 397.195C373.102 397.195 368.63 405.962 359.161 406.916C349.692 407.871 333.797 414.248 327.386 413.612C320.974 412.975 317.301 406.28 310.578 404.046C303.855 401.812 301.718 400.511 301.718 400.511C301.718 400.511 322.191 353.644 325.241 344.714C328.291 335.785 351.893 343.088 354.844 347.662Z" fill="#5374B7"/>
<path d="M353.337 486.653C353.337 486.653 356.988 492.697 357.993 495.716C358.998 498.735 354.455 498.735 349.055 498.078C343.655 497.42 331.051 498.863 326.77 498.078C322.488 497.293 323.373 492.825 328.787 490.852C334.201 488.88 343.769 478.635 344.271 480.346C344.773 482.057 348.185 487.041 353.337 486.653Z" fill="#E3B378"/>
<path d="M310.323 362.502C309.998 358.26 311.625 358.656 312.156 358.89C311.839 358.741 311.563 358.519 311.351 358.24C311.139 357.962 310.997 357.637 310.939 357.292C310.861 356.168 312.708 355.927 314.782 356.09C316.855 356.253 320.698 358.734 320.698 358.734C322.453 358.592 324.196 358.325 325.914 357.935C326.02 359.095 326.133 360.254 326.267 361.414C326.532 363.728 326.815 366.042 327.117 368.356C326.254 368.522 325.382 368.63 324.505 368.682C321.738 368.682 314.322 371.51 311.859 370.364C309.396 369.219 310.677 367.557 310.323 362.502Z" fill="#F6BD95"/>
<path d="M344.943 306.048L353.726 303.715C354.194 303.578 354.59 303.265 354.83 302.841C355.071 302.417 355.137 301.917 355.014 301.446L347.3 269.878C347.248 269.646 347.151 269.426 347.013 269.232C346.875 269.038 346.7 268.873 346.497 268.748C346.295 268.623 346.069 268.54 345.834 268.503C345.599 268.466 345.358 268.477 345.127 268.534L336.345 270.868C335.877 271.004 335.481 271.318 335.241 271.742C335 272.165 334.934 272.666 335.057 273.137L342.771 304.719C342.824 304.95 342.923 305.168 343.061 305.361C343.2 305.553 343.375 305.716 343.578 305.84C343.78 305.963 344.005 306.046 344.239 306.081C344.474 306.117 344.713 306.106 344.943 306.048Z" fill="#F6BD95"/>
<path d="M359.755 302.336C357.632 296.016 355.29 290.897 353.273 291.364C350.117 292.071 340.534 294.729 333.358 303.164C322.969 315.437 323.309 350.893 323.309 350.893C323.309 350.893 339.402 356.846 357.123 347.493C357.123 347.5 365.219 318.52 359.755 302.336Z" fill="#E3B378"/>
<path d="M323.833 366.872C323.857 363.872 323.479 360.883 322.708 357.985C331.957 356.571 340.917 352.039 340.917 352.039C340.917 352.039 340.747 343.279 340.414 324.89C340.082 306.501 342.36 306.338 351.829 305.624C356.486 305.27 357.873 308.516 359.762 317.516C362.338 329.973 357.491 354.916 352.431 359.865C347.371 364.814 326.749 369.191 323.727 369.191H323.614C323.726 368.422 323.8 367.648 323.833 366.872Z" fill="white"/>
<path d="M322.58 279.74C323.776 288.225 328.581 293.294 334.031 292.304C339.48 291.314 341.575 284.923 340.839 276.368C340.103 267.813 335.092 261.669 329.643 262.652C324.194 263.635 320.542 265.212 322.58 279.74Z" fill="#F6BD95"/>
<path d="M338.942 279.854C338.942 279.854 329.685 276.75 327.739 270.429C325.793 264.109 321.221 269.015 320.769 266.258C320.316 263.501 327.4 250.994 340.541 252.181C353.683 253.369 357.576 264.201 356.429 273.392C355.283 282.583 347.399 289.752 338.942 279.854Z" fill="#373463"/>
<path d="M340.138 283.792C342.917 283.792 345.17 281.576 345.17 278.843C345.17 276.109 342.917 273.894 340.138 273.894C337.359 273.894 335.106 276.109 335.106 278.843C335.106 281.576 337.359 283.792 340.138 283.792Z" fill="#F6BD95"/>
<path d="M351.263 267.714C351.857 268.025 356.45 271.426 356.684 277.125C356.917 282.823 356.776 287.793 358.588 290.027C360.399 292.261 362.742 294.976 364.794 295.196C366.846 295.415 366.585 295.132 365.325 298.964C364.065 302.796 361.609 305.822 360.47 305.384C359.331 304.945 356.705 301.41 356.507 300.024C356.309 298.639 356.762 290.515 356.302 289.144C355.842 287.772 352.997 280.292 352.664 278.786C352.332 277.28 351.291 275.018 349.933 274.162C348.574 273.307 348.036 266.017 351.263 267.714Z" fill="#373463"/>
<path d="M348.998 268.407C349.381 268.98 351.829 274.254 349.458 279.38C347.088 284.506 344.66 288.804 345.212 291.668C345.764 294.531 346.585 298.108 348.298 299.303C350.01 300.498 349.897 300.138 347.038 302.881C344.179 305.624 340.669 307.052 339.834 306.098C338.999 305.143 338.348 300.731 338.808 299.416C339.268 298.101 343.379 291.187 343.606 289.759C343.832 288.331 344.752 280.334 345.149 278.843C345.545 277.351 345.665 274.848 344.865 273.413C344.066 271.978 346.939 265.303 348.998 268.407Z" fill="#373463"/>
<path d="M345.757 289.829C344.986 289.61 342.785 289.391 342.594 289.752C342.365 290.343 342.199 290.957 342.098 291.583C342.098 291.738 343.514 293.131 344.802 292.933C346.09 292.735 346.769 290.112 345.757 289.829Z" fill="white"/>
<path d="M358.227 288.161C357.455 288.352 355.396 289.257 355.396 289.667C355.465 290.297 355.6 290.918 355.799 291.519C355.87 291.661 357.746 292.177 358.793 291.357C359.84 290.536 359.225 287.906 358.227 288.161Z" fill="white"/>
<path d="M395.827 356.698C395.827 356.698 372.996 343.385 370.831 340.585C368.665 337.786 366.804 333.226 364.462 331.826C362.119 330.426 359.09 332.179 359.423 332.264C359.755 332.349 361.687 333.487 361.355 334.894C361.022 336.301 358.333 339.709 351.787 337.255C345.241 334.802 343.139 330.772 343.139 330.772C343.139 330.772 342.636 334.979 344.646 337.079L346.663 339.2C346.663 339.2 346.076 341.915 347.081 342.791C348.086 343.668 350.775 344.106 350.775 344.106C350.775 344.106 350.945 348.836 358.163 349.798C365.382 350.759 365.799 349.536 367.144 350.505C368.488 351.473 390.498 370.909 397.695 372.662C404.892 374.416 406.923 361.28 395.827 356.698Z" fill="#F6BD95"/>
<path d="M462.937 432.227C462.937 432.227 488.336 423.432 489.978 423.432C491.62 423.432 495.385 430.467 493.92 434.32C492.455 438.173 462.534 448.015 462.534 448.015L462.937 432.227Z" fill="#F6BD95"/>
<path d="M452.4 384.809C468.677 378.149 474.954 395.117 480.099 404.774C485.244 414.432 481.33 414.863 462.937 432.22C444.544 449.577 420.999 452.914 414.708 462.742C408.416 472.569 398.827 465.259 408.657 441.878C418.487 418.497 435.019 404.598 435.804 397.952C436.59 391.306 449.215 386.117 452.4 384.809Z" fill="#425685"/>
<path d="M405.508 464.099C407.709 469.098 415.755 474.202 427.446 467.981C439.137 461.759 461.111 456.902 467.247 454.441L473.383 451.981L470.085 427.342C470.085 427.342 456.363 433.161 448.443 435.366C440.524 437.572 429.775 432.432 419.959 441.638C410.143 450.843 402.677 457.701 405.508 464.099Z" fill="#425685"/>
<path d="M430.496 437.636C430.496 437.636 451.267 455.24 452.152 456.683C453.036 458.125 449.385 465.209 445.478 465.994C441.572 466.779 417.538 445.767 417.538 445.767L430.496 437.636Z" fill="#F6BD95"/>
<path d="M375.636 403.657C372.805 408.281 372.989 418.108 384.327 425.072C395.664 432.036 411.396 448.722 416.682 452.794L421.969 456.866L440.1 440.711C440.1 440.711 428.012 431.775 421.969 425.999C415.925 420.222 414.29 407.998 401.573 404.322C388.856 400.645 379.288 397.747 375.636 403.657Z" fill="#7A6E83"/>
<path d="M466.284 385.261C480.438 395.993 485.923 405.227 480.891 414.955C475.859 424.684 451.168 430.46 427.255 423.623C403.342 416.786 393.01 411.272 381.68 411.01C370.35 410.749 371.107 398.397 395.274 394.459C419.442 390.521 437.828 390.252 443.624 387.389C449.42 384.526 463.538 383.197 466.284 385.261Z" fill="#7A6E83"/>
<path d="M446.462 310.714L435.981 314.85C435.629 314.98 435.254 315.039 434.878 315.023C434.503 315.006 434.135 314.916 433.795 314.756C433.455 314.596 433.15 314.37 432.899 314.091C432.647 313.813 432.454 313.487 432.329 313.132L420.178 279.585C419.908 278.86 419.928 278.059 420.235 277.348C420.543 276.638 421.113 276.074 421.827 275.774L432.308 271.638C432.661 271.508 433.035 271.45 433.411 271.466C433.786 271.482 434.154 271.573 434.494 271.733C434.834 271.893 435.139 272.119 435.39 272.397C435.642 272.676 435.836 273.002 435.96 273.356L448.111 306.911C448.379 307.635 448.358 308.435 448.05 309.143C447.743 309.852 447.174 310.415 446.462 310.714Z" fill="#F6BD95"/>
<path d="M450.68 270.606C456.627 274.021 461.031 279.59 462.98 286.16C465.626 295.097 457.693 307.18 457.693 307.18L453.631 304.281L457.743 295.74L453.043 303.1L449.505 296.97L452.697 295.217L448.755 295.832L447.495 290.756L449.675 289.533L447.24 289.794L446.823 286.556C446.823 286.556 451.069 285.142 451.352 281.911C451.635 278.68 450.177 274.028 447.913 273.243C445.648 272.459 449.13 269.729 450.68 270.606Z" fill="#373463"/>
<path d="M434.693 271.702C434.693 286.895 420.539 291.625 414.8 291.625C409.06 291.625 408.147 282.901 408.586 271.221C409.025 259.541 412.387 250.555 418.112 250.555C423.837 250.555 434.693 252.302 434.693 271.702Z" fill="#F6BD95"/>
<path d="M413.115 253.002C413.115 253.002 412.443 249.325 418.819 245.38C425.196 241.435 434.346 241.265 440.22 243.966C446.094 246.667 450.878 257.017 450.46 265.685C450.043 274.353 448.026 274.445 446.349 277.068C444.671 279.691 440.892 283.375 438.875 283.898C436.859 284.421 435.599 274.353 431.091 270.67C426.583 266.986 419.506 262.963 418.501 258.318C417.496 253.673 416.392 251.425 413.115 253.002Z" fill="#373463"/>
<path d="M437.29 273.236C436.965 276.333 434.459 278.843 431.664 278.843C428.869 278.843 426.894 276.333 427.213 273.236C427.531 270.139 430.043 267.63 432.839 267.63C435.634 267.63 437.616 270.139 437.29 273.236Z" fill="#F6BD95"/>
<path d="M451.317 274.007C450.085 275.675 448.387 276.46 447.523 275.767C446.66 275.074 446.957 273.158 448.189 271.525C449.42 269.892 451.118 269.072 451.982 269.765C452.845 270.458 452.548 272.338 451.317 274.007Z" fill="white"/>
<path d="M449.507 452.858C448.722 453.749 446.11 460.479 441.723 461.002C437.335 461.526 432.523 456.138 430.768 457.326C429.013 458.514 418.808 472.831 418.808 472.831C418.808 472.831 408.737 474.803 408.107 475.984C407.477 477.165 407.98 484.129 408.107 485.84C408.235 487.55 441.978 484.786 443.86 484.425C445.742 484.065 462.26 472.074 462.748 469.84C463.237 467.606 450.894 451.281 449.507 452.858Z" fill="#F1A36C"/>
<path d="M459.731 463.937C456.094 467.783 443.454 476.825 441.827 477.165C440.199 477.504 414.651 479.618 407.772 479.066C407.772 481.562 407.999 484.723 408.084 485.833C408.211 487.543 441.954 484.779 443.836 484.418C445.719 484.058 462.236 472.067 462.725 469.833C462.895 469.048 461.578 466.673 459.731 463.937Z" fill="#5374B7"/>
<path d="M438.422 301.128C428.734 304.663 424.976 310.983 419.159 324.381C413.342 337.779 407.072 343.039 409.591 349.607C412.111 356.175 416.895 356.677 416.895 356.677C416.895 356.677 425.705 385.841 430.999 390.571C440.439 390.309 449.632 389.517 466.249 398.454C482.866 407.39 482.115 411.59 482.115 411.59C482.115 411.59 488.662 400.03 480.856 387.941C473.05 375.851 462.725 373.489 462.456 358.246C462.187 343.003 458.917 309.378 451.21 304.295C443.504 299.212 441.402 300.032 438.422 301.128Z" fill="#F1A36C"/>
<path d="M443.836 308.353C453.036 311.888 456.681 329.111 441.819 350.392C426.958 371.672 416.123 378.771 411.877 379.032C407.631 379.294 393.229 376.127 393.229 376.127C393.229 376.127 394.489 358.261 395.996 354.323C395.996 354.323 409.089 357.214 412.11 354.061C415.132 350.908 435.026 304.938 443.836 308.353Z" fill="white"/>
<path d="M485.477 423.708C485.774 424.882 489.801 430.778 487.855 434.956C485.909 439.135 478.98 440.422 478.987 442.613C478.995 444.805 485.074 461.476 485.074 461.476C485.074 461.476 481.245 471.374 481.861 472.583C482.476 473.792 488.371 477.08 489.822 477.886C491.273 478.692 507.196 447.534 507.897 445.661C508.597 443.787 507.812 422.853 506.283 421.205C504.754 419.558 484.946 421.644 485.477 423.708Z" fill="#F1A36C"/>
<path d="M499.921 420.668C501.067 425.942 501.577 441.878 500.968 443.532C500.36 445.187 488.308 468.744 484.189 474.513C486.206 475.857 488.902 477.341 489.851 477.886C491.266 478.692 507.224 447.534 507.925 445.66C508.626 443.787 507.84 422.852 506.311 421.205C505.759 420.668 503.134 420.526 499.921 420.668Z" fill="#5374B7"/>
</g>
<defs>
<clipPath id="clip0">
<rect width="552" height="541" fill="white"/>
</clipPath>
</defs>
</svg>
