<svg width="648" height="510" viewBox="0 0 648 510" fill="none" xmlns="http://www.w3.org/2000/svg">
<g clip-path="url(#clip0)">
<path d="M124.352 33.0416C124.352 33.0416 20.9234 5.32502 33.8342 114.563C46.745 223.801 -28.9721 292.285 12.6015 345.281C54.1752 398.278 91.0648 468.378 118.812 487.906C146.56 507.433 288.816 533.557 377.42 468.342C466.024 403.127 479.327 372.499 507.42 315.081C509.429 310.98 529.425 269.31 525.252 208.113C521.686 155.817 519.308 143.932 471.636 88.4868C417.52 25.4944 320.166 -17.4948 294.297 6.9652C268.428 31.4252 264.742 59.1419 227.793 64.0148C190.844 68.8878 124.352 33.0416 124.352 33.0416Z" fill="#D6E8F6"/>
<path d="M525.252 208.113C521.685 155.817 519.308 143.932 471.635 88.4868C417.519 25.4944 320.165 -17.4948 294.296 6.9652C268.427 31.4252 264.742 59.1419 227.793 64.0148C190.844 68.8878 124.364 33.0416 124.364 33.0416C124.364 33.0416 20.935 5.32502 33.8458 114.563C46.7566 223.801 -28.9724 292.285 12.6013 345.281C14.9235 348.237 17.2298 351.244 19.5203 354.302H487.601C494.223 342.274 500.346 329.521 507.419 315.081C509.428 310.98 529.425 269.31 525.252 208.113Z" fill="#EBF4FB"/>
<path d="M291.8 256.878H134.624V354.041H291.8V256.878Z" fill="white"/>
<path d="M291.8 240.94H211.316V283.454H291.8V240.94Z" fill="white"/>
<path d="M154.371 220.449H137.667V272.828H154.371V220.449Z" fill="white"/>
<path d="M340.4 266.755H269.783V354.052H340.4V266.755Z" fill="white"/>
<path d="M401.911 303.944H318.383V354.041H401.911V303.944Z" fill="white"/>
<path d="M401.899 282.693H366.971V354.052H401.899V282.693Z" fill="white"/>
<path d="M439.87 326.716H385.956V354.04H439.87V326.716Z" fill="white"/>
<path d="M476.32 287.245H429.242V354.041H476.32V287.245Z" fill="white"/>
<path d="M170.313 218.928H120.964V222.719H170.313V218.928Z" fill="white"/>
<path d="M166.521 214.376H124.757V222.731H166.521V214.376Z" fill="white"/>
<path d="M136.146 202.229H126.659V218.928H136.146V202.229Z" stroke="white" stroke-miterlimit="10"/>
<path d="M145.633 202.229H136.146V218.928H145.633V202.229Z" stroke="white" stroke-miterlimit="10"/>
<path d="M155.131 202.229H145.645V218.928H155.131V202.229Z" stroke="white" stroke-miterlimit="10"/>
<path d="M164.618 202.229H155.131V218.928H164.618V202.229Z" stroke="white" stroke-miterlimit="10"/>
<path d="M170.313 200.708H120.964V203.739H170.313V200.708Z" fill="white"/>
<path d="M163.489 194.634H127.8V203.738H163.489V194.634Z" fill="white"/>
<path d="M155.88 190.082H134.624V200.708H155.88V190.082Z" fill="white"/>
<path d="M147.535 176.414H143.742V200.708H147.535V176.414Z" fill="white"/>
<path d="M544.262 333.93H407.593V354.421H544.262V333.93Z" fill="white"/>
<path d="M199.546 274.242H2.1637V354.278H199.546V274.242Z" fill="white"/>
<path d="M287.485 354.682C292.371 351.877 298.648 346.279 296.532 337.211C294.416 328.142 283.99 323.959 263.708 307.224C243.426 290.49 222.491 288.422 222.491 288.422L39.5169 286.972L11.4009 259.279C0.5825 293.461 -5.67079 321.653 13.7786 346.458C16.1008 349.413 18.4071 352.42 20.6976 355.479H283.978C285.18 355.393 286.363 355.124 287.485 354.682Z" fill="#769CD0"/>
<path fill-rule="evenodd" clip-rule="evenodd" d="M226.236 305.798L258.002 306.499L277.903 321.855H240.894C240.894 321.855 222.099 321.154 226.236 305.798Z" fill="white"/>
<path d="M22.8019 307.545H21.2326C18.3897 307.545 16.085 309.849 16.085 312.692V314.962C16.085 317.804 18.3897 320.108 21.2326 320.108H22.8019C25.6449 320.108 27.9496 317.804 27.9496 314.962V312.692C27.9496 309.849 25.6449 307.545 22.8019 307.545Z" fill="white"/>
<path d="M49.3368 307.545H47.7675C44.9246 307.545 42.6199 309.849 42.6199 312.692V314.962C42.6199 317.804 44.9246 320.108 47.7675 320.108H49.3368C52.1798 320.108 54.4845 317.804 54.4845 314.962V312.692C54.4845 309.849 52.1798 307.545 49.3368 307.545Z" fill="white"/>
<path d="M74.4688 307.545H72.8995C70.0565 307.545 67.7518 309.849 67.7518 312.692V314.962C67.7518 317.804 70.0565 320.108 72.8995 320.108H74.4688C77.3118 320.108 79.6164 317.804 79.6164 314.962V312.692C79.6164 309.849 77.3118 307.545 74.4688 307.545Z" fill="white"/>
<path d="M100.302 307.545H98.733C95.89 307.545 93.5853 309.849 93.5853 312.692V314.962C93.5853 317.804 95.89 320.108 98.733 320.108H100.302C103.145 320.108 105.45 317.804 105.45 314.962V312.692C105.45 309.849 103.145 307.545 100.302 307.545Z" fill="white"/>
<path d="M126.136 307.545H124.566C121.723 307.545 119.419 309.849 119.419 312.692V314.962C119.419 317.804 121.723 320.108 124.566 320.108H126.136C128.979 320.108 131.283 317.804 131.283 314.962V312.692C131.283 309.849 128.979 307.545 126.136 307.545Z" fill="white"/>
<path d="M151.957 307.545H150.388C147.545 307.545 145.24 309.849 145.24 312.692V314.962C145.24 317.804 147.545 320.108 150.388 320.108H151.957C154.8 320.108 157.105 317.804 157.105 314.962V312.692C157.105 309.849 154.8 307.545 151.957 307.545Z" fill="white"/>
<path d="M177.089 307.545H175.52C172.677 307.545 170.372 309.849 170.372 312.692V314.962C170.372 317.804 172.677 320.108 175.52 320.108H177.089C179.932 320.108 182.237 317.804 182.237 314.962V312.692C182.237 309.849 179.932 307.545 177.089 307.545Z" fill="white"/>
<path d="M202.923 307.545H201.353C198.511 307.545 196.206 309.849 196.206 312.692V314.962C196.206 317.804 198.511 320.108 201.353 320.108H202.923C205.766 320.108 208.07 317.804 208.07 314.962V312.692C208.07 309.849 205.766 307.545 202.923 307.545Z" fill="white"/>
<path d="M520.687 167.702H423.012V44.5225C421.824 43.6668 420.635 42.8229 419.446 41.991V167.702H312.45V0.118896C311.262 0.213979 310.073 0.332833 308.884 0.511113V167.702H201.889V62.4932C200.708 62.2634 199.519 62.0178 198.322 61.7563V167.702H91.3266V30.0937C90.1377 30.165 88.9489 30.2482 87.7601 30.3671V167.702H33.656C33.5134 168.899 33.3588 170.087 33.1924 171.268H87.7601V354.302H91.3266V171.268H198.322V354.302H201.889V171.268H308.884V354.302H312.45V171.268H419.446V354.302H423.012V171.268H521.401C521.179 170.063 520.941 168.875 520.687 167.702Z" fill="#D6E8F6"/>
<path d="M247.064 118.164L250.143 113.707L216.939 89.9363C216.939 89.9363 213.016 86.3707 210.02 88.7478C210.02 88.7478 208.32 89.8056 211.328 92.7531C217.688 99.0524 247.064 118.164 247.064 118.164Z" fill="#D6E8F6"/>
<path d="M224.881 101.406L225.927 128.481C225.927 128.481 226.236 131.404 228.304 132.522C229.315 127.981 230.088 118.449 231.871 115.609C231.871 115.609 237.268 104.995 242.202 101.239C247.136 97.4836 257.526 92.2541 257.526 92.2541C257.526 92.2541 256.991 89.9483 252.604 90.3999C248.217 90.8516 225.011 99.3258 225.011 99.3258L224.881 101.406Z" fill="#D6E8F6"/>
<path d="M243.105 114.587C243.105 114.587 244.092 121.278 244.437 123.168C244.782 125.058 245.697 128.207 247.35 128.481C248.705 125.83 250.06 117.558 250.06 117.558L260.07 111.496C260.07 111.496 257.883 108.917 251.748 110.141C248.803 110.645 245.916 111.442 243.129 112.519L243.105 114.587Z" fill="#D6E8F6"/>
<path d="M222.646 106.74L221.172 109.112L226.301 112.299L227.776 109.927L222.646 106.74Z" fill="#D6E8F6"/>
<path d="M233.156 92.6244L231.675 94.9985L236.809 98.1985L238.29 95.8244L233.156 92.6244Z" fill="#D6E8F6"/>
<path d="M176.923 80.9392H18.8074V120.161H176.923V80.9392Z" fill="#B7CCE9"/>
<path d="M49.7172 50.0374H46.1506V96.3902H49.7172V50.0374Z" fill="#B7CCE9"/>
<path d="M148.391 44.0947H144.824V95.2017H148.391V44.0947Z" fill="#B7CCE9"/>
<path d="M168.601 85.6934H25.9404V114.218H168.601V85.6934Z" fill="#D6E8F6"/>
<path d="M47.6843 96.2358V92.2185L37.2344 100.241L47.6843 108.276V104.258H62.7944V100.241V96.2358H47.6843Z" fill="#1C934C"/>
<path d="M147.44 96.2358V92.2185L157.901 100.241L147.44 108.276V104.258H132.341V100.241V96.2358H147.44Z" fill="#1C934C"/>
<path d="M155.524 458.893C162.09 458.893 167.412 457.297 167.412 455.327C167.412 453.358 162.09 451.762 155.524 451.762C148.958 451.762 143.635 453.358 143.635 455.327C143.635 457.297 148.958 458.893 155.524 458.893Z" fill="#EBF4FB"/>
<path d="M184.713 389.918L188.446 391.937L250.69 276.944L246.957 274.925L184.713 389.918Z" fill="#384A79"/>
<path d="M164.815 458.332C169.963 457.969 173.842 453.503 173.479 448.357C173.117 443.21 168.649 439.332 163.501 439.694C158.354 440.057 154.474 444.523 154.837 449.67C155.2 454.816 159.667 458.694 164.815 458.332Z" fill="#03346A"/>
<path d="M127.308 430.168L157.12 446.832C163.997 450.676 172.689 448.218 176.534 441.343L222.239 359.617C226.084 352.742 223.627 344.052 216.75 340.208L186.938 323.544C180.061 319.7 171.369 322.157 167.524 329.032L121.818 410.759C117.973 417.634 120.431 426.324 127.308 430.168Z" fill="#F1A36C"/>
<path d="M146.379 441.267L147.728 442.047L209.176 335.856L207.828 335.076L146.379 441.267Z" fill="#EAFAFE"/>
<path d="M169.425 399.593L172.684 401.388C174.122 402.18 175.93 401.657 176.722 400.22L187.223 381.171C188.015 379.734 187.492 377.927 186.054 377.135L182.795 375.339C181.358 374.547 179.55 375.07 178.758 376.507L168.257 395.556C167.465 396.993 167.988 398.801 169.425 399.593Z" fill="#EAFAFE"/>
<path d="M446.789 176.022C462.244 149.422 479.993 114.67 495.413 88.0703C495.413 136.408 495.532 182.357 495.532 230.694C495.532 230.694 447.978 176.022 446.789 176.022Z" fill="white"/>
<path d="M648 231.289H495.829V87.4761H648V231.289Z" fill="#D6E8F6"/>
<path d="M589.117 140.366C589.117 140.681 588.992 140.983 588.769 141.206C588.546 141.429 588.243 141.554 587.928 141.554H541.896C541.568 141.554 541.254 141.424 541.022 141.192C540.79 140.961 540.66 140.646 540.66 140.318C540.66 139.991 540.79 139.676 541.022 139.444C541.254 139.213 541.568 139.082 541.896 139.082H587.88C588.049 139.075 588.217 139.104 588.373 139.166C588.53 139.229 588.671 139.324 588.788 139.445C588.905 139.567 588.995 139.712 589.052 139.87C589.108 140.029 589.13 140.198 589.117 140.366ZM553.178 106.1L557.791 109.25L569.168 104.734L557.351 102.606C557.123 102.563 556.888 102.588 556.673 102.677L553.392 103.973C553.169 104.04 552.97 104.172 552.821 104.351C552.672 104.531 552.579 104.75 552.554 104.982C552.528 105.214 552.572 105.448 552.679 105.655C552.785 105.863 552.951 106.034 553.155 106.148L553.178 106.1ZM586.347 102.677C586.062 102.096 585.619 101.606 585.067 101.265C584.516 100.925 583.88 100.747 583.232 100.752C582.784 100.752 582.341 100.837 581.924 101.002L571.463 105.15L559.027 110.082L546.283 115.145L543.275 113.576C542.681 113.274 542.031 113.1 541.365 113.065C540.699 113.03 540.034 113.135 539.412 113.374C539.221 113.437 539.05 113.547 538.913 113.694C538.777 113.841 538.679 114.02 538.631 114.215C538.582 114.409 538.584 114.613 538.635 114.807C538.686 115.001 538.786 115.178 538.924 115.323L543.442 120.684L542.479 124.249C542.395 124.474 542.382 124.718 542.439 124.95C542.497 125.182 542.623 125.391 542.802 125.55C542.98 125.709 543.203 125.811 543.44 125.842C543.677 125.873 543.918 125.831 544.131 125.723L545.724 125.093C545.926 125.015 546.103 124.884 546.235 124.713L548.827 121.48L561.417 116.488L561.94 128.897C561.936 129.099 561.985 129.299 562.08 129.477C562.176 129.656 562.315 129.807 562.485 129.917C562.656 130.026 562.851 130.09 563.053 130.103C563.255 130.116 563.457 130.077 563.64 129.99L567.207 128.588C567.365 128.527 567.508 128.432 567.627 128.312C567.746 128.191 567.838 128.046 567.896 127.886L574.447 111.318L584.54 107.313C584.976 107.141 585.372 106.882 585.704 106.551C586.036 106.22 586.296 105.824 586.467 105.388C586.639 104.952 586.719 104.485 586.703 104.017C586.686 103.548 586.573 103.088 586.371 102.666L586.347 102.677Z" fill="#E53028"/>
<path d="M590.96 148.781C586.519 148.602 582.309 146.76 579.166 143.619C576.022 140.479 574.176 136.271 573.995 131.832V130.24C574.176 125.803 576.021 121.596 579.161 118.456C582.302 115.316 586.51 113.472 590.948 113.291H592.541C596.979 113.472 601.186 115.316 604.327 118.456C607.468 121.596 609.312 125.803 609.494 130.24V131.832C609.312 136.269 607.468 140.475 604.327 143.615C601.186 146.755 596.979 148.599 592.541 148.781H590.948H590.96Z" fill="white"/>
<path d="M591.768 112.447C588.093 112.447 584.5 113.537 581.445 115.578C578.389 117.619 576.007 120.521 574.601 123.915C573.195 127.309 572.827 131.045 573.544 134.648C574.261 138.252 576.03 141.562 578.629 144.16C581.228 146.758 584.539 148.527 588.143 149.244C591.747 149.961 595.484 149.593 598.879 148.187C602.274 146.781 605.176 144.4 607.218 141.345C609.26 138.29 610.35 134.698 610.35 131.024C610.343 126.099 608.384 121.378 604.9 117.895C601.417 114.413 596.694 112.454 591.768 112.447ZM605.463 131.82H608.733C608.53 136.041 606.762 140.035 603.772 143.021C600.782 146.008 596.786 147.773 592.565 147.973V144.704C592.565 144.599 592.544 144.496 592.504 144.399C592.464 144.303 592.405 144.215 592.331 144.141C592.257 144.067 592.17 144.008 592.073 143.968C591.976 143.928 591.873 143.908 591.768 143.908C591.664 143.908 591.56 143.928 591.463 143.968C591.367 144.008 591.279 144.067 591.205 144.141C591.131 144.215 591.072 144.303 591.032 144.399C590.992 144.496 590.972 144.599 590.972 144.704V147.973C586.752 147.77 582.759 146.004 579.772 143.017C576.784 140.031 575.017 136.039 574.815 131.82H578.085C578.296 131.82 578.498 131.736 578.648 131.587C578.797 131.438 578.881 131.235 578.881 131.024C578.881 130.813 578.797 130.61 578.648 130.461C578.498 130.312 578.296 130.228 578.085 130.228H574.815C575.017 126.009 576.784 122.017 579.772 119.031C582.759 116.044 586.752 114.278 590.972 114.076V117.344C590.972 117.449 590.992 117.552 591.032 117.649C591.072 117.745 591.131 117.833 591.205 117.907C591.279 117.981 591.367 118.04 591.463 118.08C591.56 118.12 591.664 118.14 591.768 118.14C591.873 118.14 591.976 118.12 592.073 118.08C592.17 118.04 592.257 117.981 592.331 117.907C592.405 117.833 592.464 117.745 592.504 117.649C592.544 117.552 592.565 117.449 592.565 117.344V114.076C596.784 114.278 600.777 116.044 603.765 119.031C606.752 122.017 608.519 126.009 608.721 130.228H605.452C605.24 130.228 605.038 130.312 604.888 130.461C604.739 130.61 604.655 130.813 604.655 131.024C604.655 131.235 604.739 131.438 604.888 131.587C605.038 131.736 605.24 131.82 605.452 131.82H605.463Z" fill="#03346A"/>
<path d="M592.564 130.703V122.657C592.564 122.552 592.544 122.449 592.504 122.352C592.464 122.255 592.405 122.168 592.331 122.094C592.257 122.02 592.169 121.961 592.073 121.921C591.976 121.881 591.873 121.86 591.768 121.86C591.663 121.86 591.56 121.881 591.463 121.921C591.367 121.961 591.279 122.02 591.205 122.094C591.131 122.168 591.072 122.255 591.032 122.352C590.992 122.449 590.971 122.552 590.971 122.657V130.976C590.971 131.185 591.052 131.386 591.197 131.535L599.032 139.51C599.105 139.588 599.193 139.651 599.291 139.695C599.388 139.739 599.494 139.763 599.601 139.767C599.708 139.77 599.815 139.752 599.915 139.714C600.015 139.676 600.107 139.619 600.185 139.546C600.263 139.472 600.326 139.384 600.37 139.287C600.414 139.189 600.438 139.084 600.442 138.977C600.445 138.87 600.427 138.763 600.389 138.663C600.351 138.563 600.294 138.471 600.221 138.393L592.564 130.703Z" fill="#03346A"/>
<path d="M640.391 162.484H503.758V175.095H640.391V162.484Z" fill="white"/>
<path d="M516.432 162.484H503.818V175.095H516.432V162.484Z" fill="#5374B7"/>
<path d="M583.696 162.484H558.469V175.095H583.696V162.484Z" fill="#5374B7"/>
<path d="M641.497 162.484H628.883V175.095H641.497V162.484Z" fill="#5374B7"/>
<path d="M640.866 182.214H504.233V194.824H640.866V182.214Z" fill="white"/>
<path d="M583.696 182.214H558.469V194.824H583.696V182.214Z" fill="#5374B7"/>
<path d="M516.431 182.214H503.818V194.824H516.431V182.214Z" fill="#5374B7"/>
<path d="M641.497 182.214H628.883V194.824H641.497V182.214Z" fill="#5374B7"/>
<path d="M640.629 201.409H503.995V214.019H640.629V201.409Z" fill="white"/>
<path d="M583.696 201.409H558.469V214.019H583.696V201.409Z" fill="#5374B7"/>
<path d="M516.431 201.409H503.818V214.019H516.431V201.409Z" fill="#5374B7"/>
<path d="M641.497 201.409H628.883V214.019H641.497V201.409Z" fill="#5374B7"/>
<path d="M323.744 453.533C361.498 453.533 392.103 450.548 392.103 446.865C392.103 443.183 361.498 440.198 323.744 440.198C285.991 440.198 255.386 443.183 255.386 446.865C255.386 450.548 285.991 453.533 323.744 453.533Z" fill="#EBF4FB"/>
<path d="M322.841 143.194C322.639 151.027 337.606 156.007 337.606 156.007C337.606 156.007 344.311 148.341 342.837 147.521C342.255 147.2 342.064 145.999 342.052 144.668C342.058 143.475 342.142 142.284 342.302 141.103C342.373 140.556 342.433 140.199 342.433 140.199C342.433 140.199 340.376 137.822 337.737 134.97C333.136 129.99 326.788 123.584 326.669 126.02C326.652 126.174 326.652 126.33 326.669 126.484C327.62 132.046 322.841 143.194 322.841 143.194Z" fill="#FDB28C"/>
<path d="M328.369 132.046C328.369 132.046 329.023 133.08 330.093 134.495C332.363 137.502 337.047 143.004 341.981 145.061C342.112 143.527 342.373 141.661 342.468 140.758C342.822 140.76 343.174 140.712 343.515 140.615C342.527 138.919 341.372 137.327 340.067 135.861L337.035 134.875L328.369 132.046Z" fill="#F1A36C"/>
<path d="M326.55 126.103C327.739 129.015 328.928 131.143 329.201 131.975C329.631 132.876 330.192 133.709 330.866 134.447C333.243 137.252 337.725 141.019 342.302 141.103C342.808 141.111 343.314 141.071 343.812 140.984C344.909 140.877 345.965 140.518 346.9 139.934C347.834 139.351 348.621 138.559 349.197 137.62C359.505 119.531 353.346 104.08 353.346 104.08C353.346 104.08 327.81 95.5937 323.412 103.188C320.309 108.525 323.78 119.269 326.55 126.103Z" fill="#FDB28C"/>
<path d="M353.335 104.092C353.335 104.092 355.712 104.092 356.544 99.5396C357.377 94.9875 356.211 93.7634 356.211 93.7634C354.715 89.7373 351.996 86.2799 348.436 83.8747C338.759 77.528 327.454 82.817 326.752 83.1616C314.971 88.3436 312.427 93.8584 311.82 97.1388C309.645 109.024 326.598 125.414 325.849 124.332C325.849 124.332 326.181 115.086 328.226 113.957C330.271 112.827 331.947 115.811 331.947 115.811L336.084 116.75C336.084 116.75 330.378 102.796 337.998 102.63C345.619 102.463 348.948 104.71 353.335 104.092Z" fill="#03346A"/>
<path d="M332.042 112.126C331.828 108.038 324.541 106.183 324.838 110.438C325.135 114.693 328.571 118.972 330.283 118.972C331.995 118.972 332.209 115.24 332.042 112.126Z" fill="#FDB28C"/>
<path d="M261.497 266.35C261.497 266.35 254.542 278.236 252.652 278.735C250.762 279.234 246.708 275.253 246.708 275.253C246.708 275.253 243.724 283.085 241.346 281.694C238.968 280.304 252.497 259.885 252.497 259.885L261.497 266.35Z" fill="#FDB28C"/>
<path d="M365.342 431.188C365.342 431.188 366.162 435.526 366.055 435.609C365.948 435.693 352.36 437.784 352.74 434.326C353.049 431.521 353.501 428.466 353.501 428.466L365.342 431.188Z" fill="#769CD0"/>
<path d="M315.839 445.534C335.11 455.66 345.452 452.665 345.452 452.665L344.894 454.685C332.387 458.429 315.969 448.196 315.85 448.125L314.994 448.612L305.662 446.033L306.589 442.657L313.045 444.428C314.013 444.692 314.949 445.058 315.839 445.522" fill="#03346A"/>
<path d="M345.453 452.677C345.595 451.357 344.014 450.098 344.014 450.098C344.014 450.098 333.315 446.972 331.127 442.182C330.016 439.52 328.153 437.241 325.765 435.621L324.053 436.596C313.354 442.538 310.346 434.219 310.346 434.219C306.78 437.452 307.255 442.788 307.255 442.8L313.045 444.393C314.013 444.656 314.949 445.022 315.839 445.486C335.11 455.612 345.453 452.617 345.453 452.617V452.677Z" fill="#03346A"/>
<path d="M326.17 439.377C326.082 439.352 325.999 439.309 325.928 439.252C325.857 439.195 325.797 439.124 325.753 439.044C325.663 438.883 325.64 438.693 325.689 438.515C325.738 438.337 325.855 438.185 326.015 438.093L327.727 437.119C327.886 437.029 328.075 437.006 328.251 437.055C328.427 437.104 328.576 437.221 328.666 437.38C328.756 437.541 328.78 437.731 328.731 437.909C328.682 438.087 328.565 438.239 328.405 438.331L326.693 439.306C326.614 439.351 326.528 439.381 326.438 439.393C326.348 439.406 326.257 439.4 326.17 439.377Z" fill="#EAFAFE"/>
<path d="M327.608 441.944C327.52 441.919 327.438 441.877 327.367 441.82C327.295 441.762 327.236 441.692 327.192 441.611C327.102 441.45 327.078 441.26 327.127 441.082C327.176 440.904 327.293 440.753 327.453 440.661L329.617 439.472C329.776 439.382 329.965 439.359 330.141 439.408C330.317 439.457 330.466 439.574 330.556 439.733C330.647 439.894 330.67 440.085 330.621 440.263C330.572 440.441 330.455 440.592 330.295 440.684L328.131 441.873C328.053 441.919 327.966 441.948 327.877 441.961C327.787 441.973 327.696 441.967 327.608 441.944Z" fill="#EAFAFE"/>
<path d="M357.448 439.591C376.719 449.717 387.062 446.722 387.062 446.722L386.503 448.743C373.997 452.487 357.579 442.253 357.46 442.182L356.604 442.669L347.271 440.09L348.199 436.715L354.654 438.486C355.622 438.749 356.559 439.116 357.448 439.579" fill="#03346A"/>
<path d="M387.062 446.734C387.205 445.415 385.623 444.155 385.623 444.155C385.623 444.155 374.924 441.029 372.736 436.24C371.625 433.578 369.762 431.298 367.375 429.679L365.663 430.653C354.963 436.596 351.956 428.276 351.956 428.276C348.389 431.509 348.865 436.846 348.865 436.858L354.654 438.45C355.622 438.713 356.559 439.08 357.448 439.544C376.719 449.67 387.062 446.675 387.062 446.675V446.734Z" fill="#03346A"/>
<path d="M367.779 433.435C367.691 433.409 367.609 433.367 367.537 433.31C367.466 433.253 367.407 433.182 367.363 433.102C367.272 432.941 367.249 432.751 367.298 432.573C367.347 432.395 367.464 432.243 367.624 432.151L369.336 431.176C369.496 431.087 369.684 431.064 369.86 431.113C370.036 431.162 370.186 431.279 370.276 431.438C370.366 431.599 370.389 431.789 370.34 431.967C370.291 432.145 370.174 432.297 370.014 432.389L368.302 433.363C368.224 433.409 368.137 433.439 368.048 433.451C367.958 433.463 367.867 433.458 367.779 433.435Z" fill="#EAFAFE"/>
<path d="M369.218 436.002C369.13 435.977 369.047 435.934 368.976 435.877C368.905 435.82 368.845 435.749 368.801 435.669C368.711 435.508 368.688 435.318 368.737 435.14C368.786 434.962 368.903 434.81 369.063 434.718L371.227 433.53C371.386 433.44 371.574 433.417 371.75 433.466C371.926 433.515 372.076 433.632 372.166 433.791C372.256 433.952 372.279 434.142 372.23 434.32C372.181 434.498 372.064 434.65 371.904 434.742L369.741 435.93C369.662 435.976 369.576 436.006 369.486 436.018C369.396 436.03 369.305 436.025 369.218 436.002Z" fill="#EAFAFE"/>
<path d="M324.339 430.737C324.339 430.737 324.256 437.868 324.137 437.975C324.018 438.082 311.06 440.72 311.369 435.194C311.637 431.936 312.077 428.695 312.688 425.483L324.339 430.737Z" fill="#769CD0"/>
<path d="M367.137 253.277C367.137 253.277 378.336 301.246 380.904 315.853C383.091 328.285 384.827 341.24 383.816 350.202C382.556 361.314 365.08 430.879 365.08 430.879L350.814 428.502C350.814 428.502 362.548 358.379 360.087 346.422C358.256 337.567 342.255 278.676 339.877 281.73C337.499 284.785 334.539 337.235 332.744 345.911C330.949 354.587 324.672 436.56 324.672 436.56L310.406 434.183C310.406 434.183 308.301 363.668 309.419 347.337C309.847 341.109 301.822 272.673 311.904 245.123C317.206 230.694 367.137 253.277 367.137 253.277Z" fill="#03346A"/>
<path d="M299.207 164.683L322.876 154.628L342.171 153.44L344.549 151.063L346.927 147.497L371.892 171.41L365.496 219.439C363.333 228.044 367.173 244.755 367.601 253.657C367.945 260.717 365.687 263.89 365.627 263.973L312.878 256.343C312.878 256.343 310.501 239.299 310.358 230.088L299.207 164.683Z" fill="white"/>
<path d="M423.012 191.473C423.012 191.473 417.817 196.013 415.772 197.035C413.727 198.057 416.795 202.169 416.795 202.169C420.273 201.076 423.57 199.474 426.579 197.415C434.901 191.473 423.012 191.473 423.012 191.473Z" fill="#F6BD95"/>
<path d="M325.528 282.99C329.677 279.317 327.133 275.502 330.283 249.711C331.27 241.653 331.84 240.298 332.661 231.883C332.922 229.161 333.945 218.262 334.515 214.328C334.515 214.007 334.848 212.094 335.181 209.479C335.252 208.873 335.335 208.29 335.407 207.696C336.239 200.803 336.738 194.622 337.131 190.379C338.379 177.056 330.212 162.627 323.946 153.713C321.86 150.726 319.61 147.857 317.206 145.12C316.112 145.536 316.207 145.488 313.473 146.57C307.41 148.947 293.096 153.178 291.491 154.331C289.47 155.781 289.339 157.611 287.616 168.047C285.238 182.25 282.123 196.334 280.245 210.596C279.897 213.586 279.219 216.527 278.224 219.368C276.536 224.036 274.037 228.369 270.841 232.168C265.372 238.955 257.455 249.544 247.231 263.189L254.649 267.943L260.724 272.697C274.48 258.647 285.859 242.454 294.416 224.752C295.379 220.402 299.171 213.175 300.491 208.564C302.702 200.458 302.393 195.609 304.937 188.596V188.715V188.787C306.53 195.062 307.184 218.215 307.184 218.215C305.105 230.898 302.097 243.411 298.184 255.654C294.428 267.218 293.144 272.234 295.807 277.047C300.8 286.092 318.323 289.384 325.528 282.99Z" fill="#03346A"/>
<path d="M422.275 187.836C421.527 188.424 420.732 188.948 419.898 189.405C417.9 190.498 414.096 193.149 415.142 196.976C416.497 202.11 431.215 196.417 431.215 196.417C431.215 196.417 438.122 195.145 438.681 192.851C439.24 190.558 430.05 193.351 429.087 191.913C428.815 191.445 428.691 190.907 428.731 190.367C428.764 189.582 429 188.818 429.417 188.152C429.834 187.485 430.417 186.938 431.108 186.564C432.808 185.625 437.207 182.999 437.207 182.999L441.297 181.976C442.046 181.62 443.175 180.99 442.985 180.717C442.985 180.717 443.829 179.362 438.943 179.896C434.057 180.431 424.498 186.089 422.275 187.836Z" fill="#F6BD95"/>
<path d="M432.523 196.013C429.967 193.79 428.326 189.975 425.759 187.693C433.022 183.201 439.371 180.312 446.635 175.808C449.012 178.672 452.781 182.452 453.233 183.141C445.814 187.788 440.001 191.473 432.523 196.013Z" fill="#29418C"/>
<path d="M429.86 196.833C430.323 196.772 430.773 196.635 431.191 196.429C432.513 195.99 433.864 195.644 435.234 195.395C436.056 195.062 436.851 194.665 437.611 194.206C438.966 193.6 439.549 191.948 439.002 191.758C438.455 191.568 437.897 191.366 435.864 191.877C433.831 192.388 432.297 193.065 430.68 192.507C429.063 191.948 428.754 191.972 428.873 190.617C429.221 188.282 430.029 186.04 431.251 184.021C432.44 182.571 429.753 184.734 427.518 185.791C425.283 186.849 425.437 188.169 424.498 189.048C423.559 189.928 429.86 196.833 429.86 196.833Z" fill="#F6BD95"/>
<path d="M362.382 258.031C362.453 258.328 364.688 269.607 364.759 269.916C367.434 281.219 368.326 286.555 368.326 286.555L374.02 282.716L378.502 278.58C379.008 278.116 379.371 277.518 379.55 276.855C379.729 276.192 379.716 275.492 379.513 274.836C377.028 266.826 368.575 238.444 367.03 218.476C366.542 212.213 368.373 206.306 369.408 200.648C370.311 203.156 371.322 205.902 372.332 208.576L375.994 217.383C376.456 218.495 377.15 219.496 378.028 220.32C378.907 221.144 379.951 221.772 381.091 222.162C382.231 222.552 383.441 222.695 384.64 222.582C385.84 222.469 387.002 222.103 388.049 221.507L425.866 200.018L421.669 186.374C412.574 191.473 403.052 196.334 394.326 202.11C391.175 204.214 388.988 206.722 388.025 204.214L374.317 164.018C373.204 160.739 370.865 158.018 367.791 156.423C366.507 155.757 365.163 155.08 364.022 154.545C360.61 152.917 356.307 150.92 352.479 149.149L347.474 146.843L347.355 146.938C347.355 146.938 349.495 154.07 352.253 171.791L352.538 173.609V173.823C352.597 174.239 352.669 174.655 352.728 175.071V175.214C352.768 175.499 352.811 175.784 352.859 176.069C352.962 176.767 353.065 177.48 353.168 178.209C354.357 186.849 356.128 201.551 357.793 216.396C359.1 228.091 360.17 240.654 361.062 249.675" fill="#03346A"/>
<path d="M316.849 145.203L322.972 141.483C322.972 141.483 323.138 144.835 338.308 153.606L334.004 165.729L316.849 145.203Z" fill="white"/>
<path d="M342.338 143.183C342.338 143.183 342.1 146.748 338.308 153.618L346.713 164.576L347.331 146.808L342.338 143.183Z" fill="white"/>
<path d="M338.284 153.618C338.284 153.618 336.655 160.749 337.238 162.71C337.238 162.71 340.804 164.136 343.396 162.354C342.168 159.188 340.442 156.239 338.284 153.618Z" fill="#E53028"/>
<path d="M341.934 161.759C341.934 161.759 350.493 184.591 350.493 209.229C350.493 235.484 349.304 245.539 349.304 245.539L344.549 253.276L342.171 244.196C342.171 244.196 344.632 210.287 340.257 177.769C339.461 171.826 338.284 160.713 338.284 160.713L341.934 161.759Z" fill="#E53028"/>
</g>
<defs>
<clipPath id="clip0">
<rect width="648" height="510" fill="white"/>
</clipPath>
</defs>
</svg>
